<svg width="512" height="512" viewBox="0 0 512 512" fill="none" xmlns="http://www.w3.org/2000/svg">
<g clip-path="url(#clip0_58_2)">
<path d="M301.246 256L502.624 54.6428C515.125 42.1423 515.125 21.8751 502.624 9.37561C490.124 -3.12488 469.857 -3.12488 457.357 9.37561L256 210.753L54.6428 9.37561C42.1423 -3.12488 21.8751 -3.12488 9.37561 9.37561C-3.12388 21.8761 -3.12488 42.1433 9.37561 54.6428L210.753 256L9.37561 457.357C-3.12488 469.858 -3.12488 490.125 9.37561 502.624C21.8761 515.124 42.1433 515.125 54.6428 502.624L256 301.246L457.356 502.624C469.857 515.125 490.124 515.125 502.623 502.624C515.124 490.124 515.124 469.857 502.623 457.357L301.246 256Z" fill="#5C3233"/>
</g>
<defs>
<clipPath id="clip0_58_2">
<rect width="512" height="512" fill="white"/>
</clipPath>
</defs>
</svg>
