<svg width="185" height="208" viewBox="0 0 185 208" fill="none" xmlns="http://www.w3.org/2000/svg">
<path d="M62.6961 22.9261C62.6961 40.2392 48.6611 54.2742 31.348 54.2742C14.035 54.2742 0 40.2392 0 22.9261C0 5.61308 31.3466 0.233887 48.6596 0.233887C65.9727 0.233887 62.6961 5.61308 62.6961 22.9261Z" fill="#5C3233"/>
<path d="M121.428 22.6922C121.428 40.0053 135.463 54.0403 152.776 54.0403C170.089 54.0403 184.124 40.0053 184.124 22.6922C184.124 5.37919 152.778 0 135.465 0C118.152 0 121.428 5.37919 121.428 22.6922Z" fill="#5C3233"/>
<path d="M101.062 110.186C88.7103 96.711 73.4574 104.571 67.375 110.186C65.2695 115.333 69.9483 114.163 71.118 112.993C72.2877 111.824 75.095 110.186 81.8793 108.314C88.6635 106.443 91.4708 110.186 97.3193 112.993C101.998 115.239 101.764 112.057 101.062 110.186Z" fill="#5C3233"/>
<path d="M38.488 188.944V183.712L54.328 162.4H62.488L46.984 183.712L43.192 182.608H69.64V188.944H38.488ZM56.584 196V188.944L56.824 182.608V176.32H64.168V196H56.584ZM86.3658 196.576C83.6138 196.576 81.1498 195.904 78.9738 194.56C76.7978 193.184 75.0858 191.2 73.8378 188.608C72.5898 186.016 71.9658 182.88 71.9658 179.2C71.9658 175.52 72.5898 172.384 73.8378 169.792C75.0858 167.2 76.7978 165.232 78.9738 163.888C81.1498 162.512 83.6138 161.824 86.3658 161.824C89.1498 161.824 91.6138 162.512 93.7578 163.888C95.9338 165.232 97.6458 167.2 98.8938 169.792C100.142 172.384 100.766 175.52 100.766 179.2C100.766 182.88 100.142 186.016 98.8938 188.608C97.6458 191.2 95.9338 193.184 93.7578 194.56C91.6138 195.904 89.1498 196.576 86.3658 196.576ZM86.3658 190C87.6778 190 88.8138 189.632 89.7738 188.896C90.7658 188.16 91.5338 186.992 92.0778 185.392C92.6538 183.792 92.9418 181.728 92.9418 179.2C92.9418 176.672 92.6538 174.608 92.0778 173.008C91.5338 171.408 90.7658 170.24 89.7738 169.504C88.8138 168.768 87.6778 168.4 86.3658 168.4C85.0858 168.4 83.9498 168.768 82.9578 169.504C81.9978 170.24 81.2298 171.408 80.6538 173.008C80.1098 174.608 79.8378 176.672 79.8378 179.2C79.8378 181.728 80.1098 183.792 80.6538 185.392C81.2298 186.992 81.9978 188.16 82.9578 188.896C83.9498 189.632 85.0858 190 86.3658 190ZM104.16 188.944V183.712L120 162.4H128.16L112.656 183.712L108.864 182.608H135.312V188.944H104.16ZM122.256 196V188.944L122.496 182.608V176.32H129.84V196H122.256Z" fill="#5C3233"/>
</svg>
